<svg width="206" height="150" viewBox="0 0 206 150" fill="none" xmlns="http://www.w3.org/2000/svg">
<g clip-path="url(#clip0_5690_8025)">
<path d="M159.813 62.1675H164.895V87.8325H159.813V62.1675Z" fill="white"/>
<path d="M200.861 62.1675H205.999V83.3616C205.971 85.8234 203.95 87.8325 201.535 87.8325C200.553 87.8325 199.57 87.4646 198.84 86.8704L175.424 68.0249V87.8325H170.342V66.6383C170.342 64.1482 172.335 62.1675 174.806 62.1675C175.789 62.1675 176.743 62.507 177.501 63.1296L200.889 81.9751V62.1675H200.861Z" fill="white"/>
<path d="M154.423 69.8641V72.4391C154.423 76.6836 150.969 80.1358 146.786 80.1358H123.875V87.8325H118.793V62.1675H146.814C150.997 62.1675 154.451 65.6197 154.451 69.8641H154.423ZM149.341 69.8641C149.341 68.4776 148.189 67.2892 146.786 67.2892H123.875V74.9858H146.786C148.161 74.9858 149.341 73.854 149.341 72.4108V69.8358V69.8641Z" fill="white"/>
<path d="M100.375 62.1675H105.457V87.8325H100.375V62.1675Z" fill="white"/>
<path d="M40.3184 62.1675H45.4003V87.8325H40.3184V62.1675Z" fill="white"/>
<path d="M36.1911 87.8325H27.6838L13.7577 77.3061L5.05384 83.4748V87.8325H0V62.1675H5.05384V77.193L26.3361 62.1675H35.1803L18.1096 74.2218L36.1911 87.8325Z" fill="white"/>
<path d="M85.4664 87.8324C83.7537 87.8324 82.2657 86.8421 81.5637 85.3989L72.8599 67.8834L64.1561 85.3989C63.4542 86.7855 61.9661 87.7758 60.2534 87.7758C58.2038 87.7758 56.463 86.3327 56.0419 84.4368L50.8477 62.1392H56.098L60.5623 81.2393L68.7607 64.7142C69.5188 63.1861 71.0911 62.1392 72.8599 62.1392C74.6288 62.1392 76.2011 63.2144 76.9591 64.7142L85.1857 81.2393L89.6499 62.1392H94.8441L89.6499 84.4651C89.1726 86.361 87.4599 87.8041 85.4384 87.8041L85.4664 87.8324Z" fill="white"/>
<path d="M110.876 14.3745C111.045 22.4107 107.788 44.482 103.267 44.5669C98.747 44.6518 94.6478 22.722 94.4794 14.7141C94.3109 6.70614 97.8767 0.0847449 102.397 -0.000144758C106.917 -0.0850344 110.708 6.33828 110.876 14.3745Z" fill="#8FB0DC"/>
<path d="M81.6763 18.4209C85.8036 25.297 93.9178 46.0384 90.0432 48.387C86.1686 50.7356 71.7371 33.8142 67.6379 26.9382C63.5386 20.0621 63.3421 12.5918 67.2167 10.2149C71.0913 7.8663 77.5771 11.5166 81.6763 18.3926V18.4209Z" fill="#8FB0DC"/>
<path d="M58.288 36.2194C65.251 40.0961 82.6025 53.9614 80.4126 57.9512C78.2226 61.941 57.3334 54.5556 50.3703 50.679C43.4072 46.8023 39.5326 40.4073 41.6946 36.4175C43.8565 32.4277 51.2968 32.3145 58.288 36.1911V36.2194Z" fill="#8FB0DC"/>
<path d="M50.5665 100.509C57.3892 96.3497 77.9696 88.172 80.2999 92.077C82.6303 95.9819 65.8403 110.526 59.0177 114.658C52.195 118.789 44.7827 118.987 42.4242 115.082C40.0939 111.177 43.7158 104.641 50.5384 100.509H50.5665Z" fill="#8FB0DC"/>
<path d="M68.227 124.109C72.0735 117.091 85.8312 99.6037 89.79 101.811C93.7488 104.018 86.4208 125.071 82.5742 132.088C78.7277 139.106 72.3823 143.011 68.4235 140.832C64.4647 138.653 64.3524 131.154 68.1989 124.109H68.227Z" fill="#8FB0DC"/>
<path d="M95.2367 135.625C95.0683 127.589 98.3252 105.518 102.846 105.433C107.366 105.348 111.465 127.278 111.634 135.286C111.802 143.322 108.236 149.887 103.716 149.972C99.1956 150.057 95.4052 143.633 95.2367 135.597V135.625Z" fill="#8FB0DC"/>
<path d="M124.325 132.032C120.198 125.156 112.084 104.414 115.958 102.066C119.833 99.717 134.264 116.638 138.363 123.514C142.463 130.39 142.659 137.861 138.785 140.238C134.91 142.586 128.424 138.936 124.325 132.06V132.032Z" fill="#8FB0DC"/>
<path d="M147.713 114.233C140.75 110.356 123.398 96.4909 125.588 92.5011C127.778 88.5113 148.667 95.8967 155.63 99.7733C162.593 103.65 166.468 110.045 164.306 114.035C162.116 118.025 154.704 118.138 147.713 114.261V114.233Z" fill="#8FB0DC"/>
<path d="M155.434 49.9147C148.611 54.0743 128.031 62.252 125.701 58.3471C123.37 54.4422 140.16 39.8978 146.983 35.7665C153.806 31.6352 161.218 31.4371 163.576 35.342C165.935 39.2469 162.285 45.7834 155.462 49.9147H155.434Z" fill="#8FB0DC"/>
<path d="M137.773 26.3156C133.927 33.3331 120.169 50.8204 116.21 48.6132C112.252 46.4061 119.58 25.3535 123.426 18.3359C127.273 11.3184 133.618 7.41347 137.577 9.5923C141.536 11.7994 141.648 19.2697 137.802 26.3156H137.773Z" fill="#8FB0DC"/>
</g>
<defs>
<clipPath id="clip0_5690_8025">
<rect width="206" height="150" fill="white"/>
</clipPath>
</defs>
</svg>
