<svg width="372" height="289" viewBox="0 0 372 289" fill="none" xmlns="http://www.w3.org/2000/svg">
<g clip-path="url(#clip0_5520_6635)">
<g filter="url(#filter0_d_5520_6635)">
<path d="M288.595 122.559H297.772V169.44H288.595V122.559Z" fill="white"/>
<path d="M362.721 122.559H372V161.273C371.949 165.77 368.299 169.44 363.938 169.44C362.164 169.44 360.389 168.768 359.071 167.683L316.785 133.258V169.44H307.608V130.725C307.608 126.177 311.208 122.559 315.67 122.559C317.445 122.559 319.168 123.179 320.537 124.316L362.772 158.74V122.559H362.721Z" fill="white"/>
<path d="M278.86 136.618V141.321C278.86 149.075 272.624 155.381 265.069 155.381H223.697V169.44H214.52V122.559H265.12C272.675 122.559 278.911 128.865 278.911 136.618H278.86ZM269.683 136.618C269.683 134.085 267.604 131.914 265.069 131.914H223.697V145.973H265.069C267.554 145.973 269.683 143.906 269.683 141.27V136.566V136.618Z" fill="white"/>
<path d="M181.26 122.559H190.437V169.44H181.26V122.559Z" fill="white"/>
<path d="M72.8076 122.559H81.9847V169.44H72.8076V122.559Z" fill="white"/>
<path d="M65.3548 169.44H49.9921L24.8439 150.212L9.12634 161.48V169.44H0V122.559H9.12634V150.005L47.5584 122.559H63.5295L32.7027 144.578L65.3548 169.44Z" fill="white"/>
<path d="M154.337 169.44C151.244 169.44 148.557 167.631 147.289 164.995L131.572 133L115.854 164.995C114.586 167.527 111.899 169.337 108.806 169.337C105.105 169.337 101.962 166.7 101.201 163.237L91.8213 122.507H101.303L109.364 157.396L124.169 127.21C125.538 124.419 128.377 122.507 131.572 122.507C134.766 122.507 137.605 124.471 138.974 127.21L153.83 157.396L161.891 122.507H171.271L161.891 163.289C161.029 166.752 157.937 169.388 154.286 169.388L154.337 169.44Z" fill="white"/>
</g>
<g filter="url(#filter1_d_5520_6635)">
<path d="M200.222 35.2573C200.526 49.9368 194.645 90.2537 186.482 90.4088C178.319 90.5638 170.916 50.5053 170.612 35.8775C170.308 21.2497 176.747 9.15463 184.91 8.99957C193.073 8.8445 199.918 20.5778 200.222 35.2573Z" fill="white"/>
</g>
<g filter="url(#filter2_d_5520_6635)">
<path d="M147.492 42.6486C154.945 55.2089 169.598 93.0964 162.601 97.3866C155.604 101.677 129.543 70.7671 122.141 58.2068C114.738 45.6465 114.383 32.0008 121.38 27.659C128.377 23.3688 140.089 30.0366 147.492 42.5969V42.6486Z" fill="white"/>
</g>
<g filter="url(#filter3_d_5520_6635)">
<path d="M105.257 75.1608C117.831 82.2421 149.165 107.569 145.21 114.857C141.256 122.145 103.533 108.655 90.9592 101.574C78.3852 94.4922 71.3883 82.8106 75.2924 75.5226C79.1964 68.2345 92.6324 68.0278 105.257 75.1091V75.1608Z" fill="white"/>
</g>
<g filter="url(#filter4_d_5520_6635)">
<path d="M91.3143 192.597C103.635 184.998 140.799 170.06 145.008 177.193C149.216 184.326 118.896 210.894 106.576 218.441C94.255 225.987 80.8697 226.349 76.6107 219.216C72.4024 212.083 78.943 200.143 91.2636 192.597H91.3143Z" fill="white"/>
</g>
<g filter="url(#filter5_d_5520_6635)">
<path d="M123.205 235.705C130.152 222.886 154.995 190.943 162.144 194.974C169.293 199.006 156.06 237.462 149.114 250.281C142.168 263.1 130.709 270.233 123.56 266.253C116.411 262.272 116.209 248.575 123.155 235.705H123.205Z" fill="white"/>
</g>
<g filter="url(#filter6_d_5520_6635)">
<path d="M171.981 256.742C171.677 242.062 177.558 201.745 185.721 201.59C193.884 201.435 201.287 241.494 201.591 256.122C201.895 270.801 195.456 282.793 187.293 282.948C179.13 283.103 172.285 271.37 171.981 256.69V256.742Z" fill="white"/>
</g>
<g filter="url(#filter7_d_5520_6635)">
<path d="M224.508 250.177C217.055 237.617 202.402 199.73 209.399 195.439C216.396 191.149 242.456 222.059 249.859 234.619C257.261 247.179 257.616 260.825 250.619 265.167C243.623 269.457 231.91 262.789 224.508 250.229V250.177Z" fill="white"/>
</g>
<g filter="url(#filter8_d_5520_6635)">
<path d="M266.743 217.666C254.169 210.585 222.835 185.257 226.79 177.969C230.745 170.681 268.467 184.172 281.041 191.253C293.615 198.334 300.612 210.016 296.708 217.304C292.753 224.592 279.368 224.799 266.743 217.718V217.666Z" fill="white"/>
</g>
<g filter="url(#filter9_d_5520_6635)">
<path d="M280.686 100.178C268.365 107.776 231.2 122.714 226.992 115.581C222.784 108.448 253.104 81.8798 265.424 74.3333C277.745 66.7868 291.13 66.425 295.389 73.558C299.648 80.691 293.057 92.631 280.736 100.178H280.686Z" fill="white"/>
</g>
<g filter="url(#filter10_d_5520_6635)">
<path d="M248.794 57.0702C241.848 69.8889 217.004 101.832 209.855 97.8006C202.706 93.7689 215.939 55.3128 222.885 42.4941C229.831 29.6754 241.29 22.5424 248.439 26.5224C255.588 30.5541 255.791 44.1998 248.845 57.0702H248.794Z" fill="white"/>
</g>
</g>
<defs>
<filter id="filter0_d_5520_6635" x="-7" y="115.507" width="392" height="66.9336" filterUnits="userSpaceOnUse" color-interpolation-filters="sRGB">
<feFlood flood-opacity="0" result="BackgroundImageFix"/>
<feColorMatrix in="SourceAlpha" type="matrix" values="0 0 0 0 0 0 0 0 0 0 0 0 0 0 0 0 0 0 127 0" result="hardAlpha"/>
<feOffset dx="3" dy="3"/>
<feGaussianBlur stdDeviation="5"/>
<feComposite in2="hardAlpha" operator="out"/>
<feColorMatrix type="matrix" values="0 0 0 0 0.447059 0 0 0 0 0.443137 0 0 0 0 0.443137 0 0 0 0.25 0"/>
<feBlend mode="normal" in2="BackgroundImageFix" result="effect1_dropShadow_5520_6635"/>
<feBlend mode="normal" in="SourceGraphic" in2="effect1_dropShadow_5520_6635" result="shape"/>
</filter>
<filter id="filter1_d_5520_6635" x="168.602" y="6.99805" width="39.6318" height="91.4111" filterUnits="userSpaceOnUse" color-interpolation-filters="sRGB">
<feFlood flood-opacity="0" result="BackgroundImageFix"/>
<feColorMatrix in="SourceAlpha" type="matrix" values="0 0 0 0 0 0 0 0 0 0 0 0 0 0 0 0 0 0 127 0" result="hardAlpha"/>
<feOffset dx="3" dy="3"/>
<feGaussianBlur stdDeviation="2.5"/>
<feComposite in2="hardAlpha" operator="out"/>
<feColorMatrix type="matrix" values="0 0 0 0 0.447059 0 0 0 0 0.443137 0 0 0 0 0.443137 0 0 0 0.25 0"/>
<feBlend mode="normal" in2="BackgroundImageFix" result="effect1_dropShadow_5520_6635"/>
<feBlend mode="normal" in="SourceGraphic" in2="effect1_dropShadow_5520_6635" result="shape"/>
</filter>
<filter id="filter2_d_5520_6635" x="114.353" y="24.3584" width="58.0908" height="81.4336" filterUnits="userSpaceOnUse" color-interpolation-filters="sRGB">
<feFlood flood-opacity="0" result="BackgroundImageFix"/>
<feColorMatrix in="SourceAlpha" type="matrix" values="0 0 0 0 0 0 0 0 0 0 0 0 0 0 0 0 0 0 127 0" result="hardAlpha"/>
<feOffset dx="3" dy="3"/>
<feGaussianBlur stdDeviation="2.5"/>
<feComposite in2="hardAlpha" operator="out"/>
<feColorMatrix type="matrix" values="0 0 0 0 0.447059 0 0 0 0 0.443137 0 0 0 0 0.443137 0 0 0 0.25 0"/>
<feBlend mode="normal" in2="BackgroundImageFix" result="effect1_dropShadow_5520_6635"/>
<feBlend mode="normal" in="SourceGraphic" in2="effect1_dropShadow_5520_6635" result="shape"/>
</filter>
<filter id="filter3_d_5520_6635" x="72.2109" y="67.9248" width="81.3418" height="57.0293" filterUnits="userSpaceOnUse" color-interpolation-filters="sRGB">
<feFlood flood-opacity="0" result="BackgroundImageFix"/>
<feColorMatrix in="SourceAlpha" type="matrix" values="0 0 0 0 0 0 0 0 0 0 0 0 0 0 0 0 0 0 127 0" result="hardAlpha"/>
<feOffset dx="3" dy="3"/>
<feGaussianBlur stdDeviation="2.5"/>
<feComposite in2="hardAlpha" operator="out"/>
<feColorMatrix type="matrix" values="0 0 0 0 0.447059 0 0 0 0 0.443137 0 0 0 0 0.443137 0 0 0 0.25 0"/>
<feBlend mode="normal" in2="BackgroundImageFix" result="effect1_dropShadow_5520_6635"/>
<feBlend mode="normal" in="SourceGraphic" in2="effect1_dropShadow_5520_6635" result="shape"/>
</filter>
<filter id="filter4_d_5520_6635" x="73.335" y="173.314" width="80.0703" height="59.0273" filterUnits="userSpaceOnUse" color-interpolation-filters="sRGB">
<feFlood flood-opacity="0" result="BackgroundImageFix"/>
<feColorMatrix in="SourceAlpha" type="matrix" values="0 0 0 0 0 0 0 0 0 0 0 0 0 0 0 0 0 0 127 0" result="hardAlpha"/>
<feOffset dx="3" dy="3"/>
<feGaussianBlur stdDeviation="2.5"/>
<feComposite in2="hardAlpha" operator="out"/>
<feColorMatrix type="matrix" values="0 0 0 0 0.447059 0 0 0 0 0.443137 0 0 0 0 0.443137 0 0 0 0.25 0"/>
<feBlend mode="normal" in2="BackgroundImageFix" result="effect1_dropShadow_5520_6635"/>
<feBlend mode="normal" in="SourceGraphic" in2="effect1_dropShadow_5520_6635" result="shape"/>
</filter>
<filter id="filter5_d_5520_6635" x="116.069" y="192.625" width="56.1318" height="82.7295" filterUnits="userSpaceOnUse" color-interpolation-filters="sRGB">
<feFlood flood-opacity="0" result="BackgroundImageFix"/>
<feColorMatrix in="SourceAlpha" type="matrix" values="0 0 0 0 0 0 0 0 0 0 0 0 0 0 0 0 0 0 127 0" result="hardAlpha"/>
<feOffset dx="3" dy="3"/>
<feGaussianBlur stdDeviation="2.5"/>
<feComposite in2="hardAlpha" operator="out"/>
<feColorMatrix type="matrix" values="0 0 0 0 0.447059 0 0 0 0 0.443137 0 0 0 0 0.443137 0 0 0 0.25 0"/>
<feBlend mode="normal" in2="BackgroundImageFix" result="effect1_dropShadow_5520_6635"/>
<feBlend mode="normal" in="SourceGraphic" in2="effect1_dropShadow_5520_6635" result="shape"/>
</filter>
<filter id="filter6_d_5520_6635" x="169.97" y="199.59" width="39.6318" height="91.3594" filterUnits="userSpaceOnUse" color-interpolation-filters="sRGB">
<feFlood flood-opacity="0" result="BackgroundImageFix"/>
<feColorMatrix in="SourceAlpha" type="matrix" values="0 0 0 0 0 0 0 0 0 0 0 0 0 0 0 0 0 0 127 0" result="hardAlpha"/>
<feOffset dx="3" dy="3"/>
<feGaussianBlur stdDeviation="2.5"/>
<feComposite in2="hardAlpha" operator="out"/>
<feColorMatrix type="matrix" values="0 0 0 0 0.447059 0 0 0 0 0.443137 0 0 0 0 0.443137 0 0 0 0.25 0"/>
<feBlend mode="normal" in2="BackgroundImageFix" result="effect1_dropShadow_5520_6635"/>
<feBlend mode="normal" in="SourceGraphic" in2="effect1_dropShadow_5520_6635" result="shape"/>
</filter>
<filter id="filter7_d_5520_6635" x="205.556" y="193.034" width="58.0918" height="81.4336" filterUnits="userSpaceOnUse" color-interpolation-filters="sRGB">
<feFlood flood-opacity="0" result="BackgroundImageFix"/>
<feColorMatrix in="SourceAlpha" type="matrix" values="0 0 0 0 0 0 0 0 0 0 0 0 0 0 0 0 0 0 127 0" result="hardAlpha"/>
<feOffset dx="3" dy="3"/>
<feGaussianBlur stdDeviation="2.5"/>
<feComposite in2="hardAlpha" operator="out"/>
<feColorMatrix type="matrix" values="0 0 0 0 0.447059 0 0 0 0 0.443137 0 0 0 0 0.443137 0 0 0 0.25 0"/>
<feBlend mode="normal" in2="BackgroundImageFix" result="effect1_dropShadow_5520_6635"/>
<feBlend mode="normal" in="SourceGraphic" in2="effect1_dropShadow_5520_6635" result="shape"/>
</filter>
<filter id="filter8_d_5520_6635" x="224.447" y="173.872" width="81.3418" height="57.0293" filterUnits="userSpaceOnUse" color-interpolation-filters="sRGB">
<feFlood flood-opacity="0" result="BackgroundImageFix"/>
<feColorMatrix in="SourceAlpha" type="matrix" values="0 0 0 0 0 0 0 0 0 0 0 0 0 0 0 0 0 0 127 0" result="hardAlpha"/>
<feOffset dx="3" dy="3"/>
<feGaussianBlur stdDeviation="2.5"/>
<feComposite in2="hardAlpha" operator="out"/>
<feColorMatrix type="matrix" values="0 0 0 0 0.447059 0 0 0 0 0.443137 0 0 0 0 0.443137 0 0 0 0.25 0"/>
<feBlend mode="normal" in2="BackgroundImageFix" result="effect1_dropShadow_5520_6635"/>
<feBlend mode="normal" in="SourceGraphic" in2="effect1_dropShadow_5520_6635" result="shape"/>
</filter>
<filter id="filter9_d_5520_6635" x="224.595" y="66.4326" width="80.0898" height="59.0273" filterUnits="userSpaceOnUse" color-interpolation-filters="sRGB">
<feFlood flood-opacity="0" result="BackgroundImageFix"/>
<feColorMatrix in="SourceAlpha" type="matrix" values="0 0 0 0 0 0 0 0 0 0 0 0 0 0 0 0 0 0 127 0" result="hardAlpha"/>
<feOffset dx="3" dy="3"/>
<feGaussianBlur stdDeviation="2.5"/>
<feComposite in2="hardAlpha" operator="out"/>
<feColorMatrix type="matrix" values="0 0 0 0 0.447059 0 0 0 0 0.443137 0 0 0 0 0.443137 0 0 0 0.25 0"/>
<feBlend mode="normal" in2="BackgroundImageFix" result="effect1_dropShadow_5520_6635"/>
<feBlend mode="normal" in="SourceGraphic" in2="effect1_dropShadow_5520_6635" result="shape"/>
</filter>
<filter id="filter10_d_5520_6635" x="205.798" y="23.4199" width="56.1318" height="82.7295" filterUnits="userSpaceOnUse" color-interpolation-filters="sRGB">
<feFlood flood-opacity="0" result="BackgroundImageFix"/>
<feColorMatrix in="SourceAlpha" type="matrix" values="0 0 0 0 0 0 0 0 0 0 0 0 0 0 0 0 0 0 127 0" result="hardAlpha"/>
<feOffset dx="3" dy="3"/>
<feGaussianBlur stdDeviation="2.5"/>
<feComposite in2="hardAlpha" operator="out"/>
<feColorMatrix type="matrix" values="0 0 0 0 0.447059 0 0 0 0 0.443137 0 0 0 0 0.443137 0 0 0 0.25 0"/>
<feBlend mode="normal" in2="BackgroundImageFix" result="effect1_dropShadow_5520_6635"/>
<feBlend mode="normal" in="SourceGraphic" in2="effect1_dropShadow_5520_6635" result="shape"/>
</filter>
<clipPath id="clip0_5520_6635">
<rect width="372" height="289" fill="white"/>
</clipPath>
</defs>
</svg>
